<svg width="20" height="23" viewBox="0 0 20 23" fill="none" xmlns="http://www.w3.org/2000/svg">
<g id="Group 3">
<path id="Vector" d="M19.9684 6.27603C19.2785 6.27604 18.5954 6.14016 17.958 5.87615C17.3206 5.61214 16.7414 5.22517 16.2536 4.73734C15.7657 4.24951 15.3788 3.67036 15.1147 3.03297C14.8507 2.39558 14.7148 1.71243 14.7148 1.02252H10.9615V15.7199C10.9608 16.39 10.7492 17.0429 10.3567 17.586C9.96422 18.1291 9.41076 18.5349 8.77475 18.7459C8.13875 18.9569 7.45248 18.9623 6.8132 18.7615C6.17391 18.5607 5.61406 18.1637 5.21297 17.6269C4.81189 17.0901 4.58993 16.4407 4.57854 15.7707C4.56715 15.1008 4.76693 14.4442 5.14954 13.8941C5.53215 13.344 6.0782 12.9282 6.71029 12.7058C7.34238 12.4833 8.02844 12.4655 8.67124 12.6547V9.00624C7.30517 8.82203 5.9154 9.05897 4.68753 9.68541C3.45966 10.3119 2.45212 11.298 1.79945 12.5121C1.14678 13.7263 0.880051 15.1106 1.03487 16.4803C1.1897 17.8501 1.7587 19.1399 2.66592 20.1778C3.57313 21.2156 4.77536 21.9519 6.11208 22.2885C7.44881 22.625 8.8564 22.5458 10.1469 22.0613C11.4374 21.5768 12.5494 20.7102 13.3343 19.5771C14.1193 18.444 14.5399 17.0984 14.54 15.7199L14.6489 8.29078C16.1911 9.4229 18.0549 10.0321 19.968 10.0292L19.9684 6.27603Z" fill="url(#paint0_linear_3708_1095)"/>
<path id="Vector_2" d="M18.9762 5.25361C17.5829 5.25357 16.2467 4.70005 15.2615 3.71482C14.2763 2.72958 13.7228 1.39333 13.7229 3.05176e-05H9.96951V14.6974C9.96881 15.3675 9.75723 16.0204 9.36475 16.5635C8.97227 17.1066 8.41881 17.5124 7.78281 17.7234C7.14681 17.9344 6.46053 17.9399 5.82124 17.7391C5.18195 17.5383 4.62209 17.1413 4.221 16.6045C3.8199 16.0677 3.59793 15.4183 3.58654 14.7483C3.57515 14.0784 3.77492 13.4218 4.15753 12.8717C4.54014 12.3215 5.08619 11.9058 5.71828 11.6834C6.35037 11.4609 7.03644 11.4431 7.67925 11.6323V7.98374C6.31317 7.79954 4.9234 8.03648 3.69553 8.66292C2.46765 9.28936 1.46011 10.2755 0.807446 11.4896C0.154777 12.7038 -0.111954 14.0881 0.0428692 15.4578C0.197692 16.8275 0.766701 18.1174 1.67391 19.1553C2.58113 20.1931 3.78336 20.9294 5.12009 21.266C6.45681 21.6025 7.8644 21.5233 9.1549 21.0388C10.4454 20.5543 11.5574 19.6877 12.3424 18.5546C13.1273 17.4215 13.5479 16.0759 13.548 14.6974L13.6575 7.26836C15.1997 8.40045 17.0635 9.00958 18.9766 9.00673L18.9762 5.25361Z" fill="url(#paint1_linear_3708_1095)"/>
<path id="Vector_3" d="M18.9762 6.18209C17.6776 5.93221 16.521 5.20176 15.7372 4.13656C14.7467 3.36132 14.0672 2.25633 13.8225 1.02252H10.9617V15.7199C10.9617 16.4175 10.7334 17.0958 10.3117 17.6515C9.88995 18.2071 9.29802 18.6095 8.62622 18.7972C7.95441 18.9849 7.23963 18.9476 6.59099 18.6911C5.94235 18.4345 5.39548 17.9727 5.03385 17.3763C4.39077 16.9577 3.91977 16.3217 3.70692 15.5845C3.49406 14.8473 3.55356 14.0581 3.87455 13.3612C4.19553 12.6642 4.75657 12.1061 5.45513 11.7886C6.1537 11.4712 6.94317 11.4157 7.67926 11.6323V8.94743C6.41668 8.96369 5.18377 9.33255 4.11971 10.0124C3.05565 10.6922 2.2028 11.6559 1.65743 12.7948C1.11205 13.9336 0.895864 15.2022 1.03327 16.4574C1.17068 17.7126 1.6562 18.9044 2.43505 19.8983C3.42382 20.7233 4.62729 21.2494 5.9044 21.4148C7.1815 21.5803 8.47931 21.3782 9.64568 20.8324C10.812 20.2865 11.7986 19.4195 12.4898 18.3329C13.181 17.2463 13.5481 15.9852 13.548 14.6974L13.6575 7.26838C15.1997 8.40047 17.0635 9.0096 18.9766 9.00675L18.9762 6.18209Z" fill="url(#paint2_linear_3708_1095)"/>
</g>
<defs>
<linearGradient id="paint0_linear_3708_1095" x1="2.49625" y1="20.0288" x2="18.1087" y2="4.41629" gradientUnits="userSpaceOnUse">
<stop stop-color="#B5053C"/>
<stop offset="0.233" stop-color="#C90441"/>
<stop offset="0.737" stop-color="#F0014B"/>
<stop offset="1" stop-color="#FF004F"/>
</linearGradient>
<linearGradient id="paint1_linear_3708_1095" x1="1.27164" y1="19.2387" x2="17.7173" y2="2.79302" gradientUnits="userSpaceOnUse">
<stop stop-color="#00B2C9"/>
<stop offset="0.283" stop-color="#00C8D4"/>
<stop offset="0.741" stop-color="#00E6E4"/>
<stop offset="1" stop-color="#00F1EA"/>
</linearGradient>
<linearGradient id="paint2_linear_3708_1095" x1="-7.94202" y1="29.4597" x2="28.4606" y2="-6.94289" gradientUnits="userSpaceOnUse">
<stop stop-color="#DDE3E4"/>
<stop offset="1" stop-color="#FCF7F7"/>
</linearGradient>
</defs>
</svg>
