<svg width="40" height="40" viewBox="0 0 40 40" fill="none" xmlns="http://www.w3.org/2000/svg">
    <rect width="40" height="40" rx="20" fill="#7289DA" />
    <path
        d="M29.0275 14.0267C27.3762 12.7466 25.3945 12.1067 23.3028 12L22.9725 12.32C24.844 12.7466 26.4954 13.6 28.0367 14.7733C26.1651 13.8133 24.0734 13.1733 21.8715 12.96C21.211 12.8533 20.6605 12.8533 20 12.8533C19.3395 12.8533 18.789 12.8533 18.1285 12.96C15.9266 13.1733 13.8348 13.8133 11.9633 14.7733C13.5045 13.6 15.156 12.7466 17.0275 12.32L16.6972 12C14.6055 12.1067 12.6238 12.7466 10.9725 14.0267C9.10092 17.44 8.11009 21.28 8 25.2266C9.65135 26.9333 11.9633 28 14.3853 28C14.3853 28 15.156 27.1467 15.7064 26.4C14.2752 26.08 12.9541 25.3333 12.0734 24.16C12.844 24.5866 13.6146 25.0133 14.3853 25.3333C15.3762 25.76 16.367 25.9733 17.3578 26.1867C18.2386 26.2933 19.1193 26.4 20 26.4C20.8807 26.4 21.7614 26.2933 22.6422 26.1867C23.633 25.9733 24.6238 25.76 25.6147 25.3333C26.3854 25.0133 27.156 24.5866 27.9266 24.16C27.0459 25.3333 25.7248 26.08 24.2936 26.4C24.844 27.1467 25.6147 28 25.6147 28C28.0367 28 30.3486 26.9333 32 25.2266C31.8899 21.28 30.8991 17.44 29.0275 14.0267ZM16.367 23.3066C15.2661 23.3066 14.2753 22.3466 14.2753 21.1733C14.2753 20 15.2661 19.04 16.367 19.04C17.4679 19.04 18.4587 20 18.4587 21.1733C18.4587 22.3466 17.4679 23.3066 16.367 23.3066ZM23.633 23.3066C22.5321 23.3066 21.5413 22.3466 21.5413 21.1733C21.5413 20 22.5321 19.04 23.633 19.04C24.7339 19.04 25.7248 20 25.7248 21.1733C25.7248 22.3466 24.7339 23.3066 23.633 23.3066Z"
        fill="white" />
</svg>