<svg xmlns="http://www.w3.org/2000/svg" width="32" height="32" fill="none"><path fill="#fff" d="M27.107 5.637a26.062 26.062 0 0 0-6.602-2.074 19.362 19.362 0 0 0-.845 1.755 24.24 24.24 0 0 0-7.317 0 18.744 18.744 0 0 0-.856-1.755 25.976 25.976 0 0 0-6.607 2.08C.702 11.955-.43 18.112.136 24.181c2.771 2.07 5.457 3.327 8.097 4.15a20.135 20.135 0 0 0 1.734-2.857 17.044 17.044 0 0 1-2.73-1.329c.228-.17.452-.347.669-.53 5.265 2.463 10.986 2.463 16.188 0 .22.183.443.36.67.53a17.01 17.01 0 0 1-2.736 1.332c.5 1.002 1.08 1.958 1.734 2.856 2.643-.823 5.33-2.08 8.102-4.152.665-7.036-1.135-13.136-4.757-18.545ZM10.684 20.45c-1.58 0-2.877-1.475-2.877-3.272 0-1.797 1.269-3.275 2.877-3.275 1.609 0 2.905 1.475 2.877 3.275.003 1.797-1.268 3.272-2.877 3.272Zm10.632 0c-1.581 0-2.877-1.475-2.877-3.272 0-1.797 1.268-3.275 2.877-3.275 1.608 0 2.904 1.475 2.877 3.275 0 1.797-1.27 3.272-2.877 3.272Z"/></svg>