<svg xmlns="http://www.w3.org/2000/svg" width="38" height="38" fill="none">
  <g clip-path="url(#a)">
    <mask id="b" width="38" height="38" x="0" y="0" maskUnits="userSpaceOnUse" style="mask-type:luminance">
      <path fill="#fff" d="M37.812 0H.188v37.624h37.624V0Z"/>
    </mask>
    <g mask="url(#b)">
      <path fill="#07F" d="M.188 18.06c0-8.514 0-12.77 2.645-15.415C5.478 0 9.734 0 18.247 0h1.506c8.513 0 12.77 0 15.414 2.645 2.645 2.644 2.645 6.901 2.645 15.414v1.505c0 8.514 0 12.77-2.645 15.415-2.645 2.645-6.901 2.645-15.415 2.645h-1.505c-8.513 0-12.77 0-15.414-2.645C.188 32.334.188 28.078.188 19.564V18.06Z"/>
      <path fill="#fff" d="M20.207 27.105c-8.575 0-13.466-5.879-13.67-15.661h4.296c.14 7.18 3.307 10.221 5.815 10.848V11.444h4.045v6.192c2.477-.266 5.08-3.088 5.957-6.192h4.045c-.674 3.825-3.496 6.647-5.503 7.807 2.007.94 5.22 3.402 6.443 7.854h-4.452c-.956-2.979-3.339-5.283-6.49-5.597v5.597h-.486Z"/>
    </g>
  </g>
  <defs>
    <clipPath id="a">
      <path fill="#fff" d="M0 0h38v37.624H0z"/>
    </clipPath>
  </defs>
</svg>