<svg width="40" height="40" viewBox="0 0 40 40" fill="none" xmlns="http://www.w3.org/2000/svg">
    <rect width="40" height="40" rx="20" fill="#F40000" />
    <path fill-rule="evenodd" clip-rule="evenodd"
        d="M11.2625 27.0568C10.8702 26.9408 10.5123 26.7343 10.219 26.4549C9.9256 26.1754 9.7054 25.8312 9.57695 25.4512C8.84292 23.4874 8.62543 15.2869 10.0391 13.6681C10.5096 13.1414 11.1739 12.8172 11.8878 12.7658C15.6802 12.3677 27.3975 12.4208 28.7432 12.8985C29.1217 13.0183 29.4675 13.2203 29.7547 13.4891C30.0419 13.758 30.263 14.0868 30.4015 14.451C31.2035 16.4812 31.2307 23.8589 30.2928 25.8095C30.044 26.3173 29.6275 26.7285 29.1102 26.9772C27.6965 27.6672 13.1383 27.6539 11.2625 27.0568ZM17.2842 23.2087L24.0808 19.7587L17.2842 16.2821V23.2087Z"
        fill="white" />
</svg>